<svg xmlns="http://www.w3.org/2000/svg" width="685" height="420.002" viewBox="0 0 685 420.002">
  <path id="Subtraction_1" data-name="Subtraction 1" d="M685,420H429.9a352.215,352.215,0,0,0,36.835-2.053c13.462-1.427,27.827-3.635,42.695-6.564,15.515-3.056,32.05-6.988,49.148-11.688,17.776-4.887,36.693-10.75,56.225-17.427A354.116,354.116,0,0,0,685,349.737V420Zm-256.233,0H0V0H89.592C89.2,7.483,89,15.071,89,22.551v.412c.045,89.446,27.533,157.022,50.586,197.96,26.85,47.683,63.009,86.12,96.727,102.821a115.846,115.846,0,0,1,21.572,14.239c6.875,5.561,13.518,11.738,20.552,18.277l.006.006C310.423,386,346.67,419.7,428.767,420Z"  fill="#0f3a5f"/>
</svg>
