<svg xmlns="http://www.w3.org/2000/svg" width="23" height="23" viewBox="0 0 23 23">
  <path id="Vector" d="M11.5,0A11.5,11.5,0,1,0,23,11.5,11.51,11.51,0,0,0,11.5,0Zm0,21.769h-.279a1.13,1.13,0,0,0,.14-.148,15.054,15.054,0,0,0,2.12-2.949,3.391,3.391,0,0,0,.445-1.178,2.562,2.562,0,0,0-2.164-2.539A2.277,2.277,0,0,1,10.68,14.6a2.69,2.69,0,0,1-.41-.567A2.572,2.572,0,0,0,8.15,12.9c-.567,0-1.291.122-1.579-.366a.893.893,0,0,1-.087-.523c.1-.968,1.125-1.553,2.059-1.824a5.079,5.079,0,0,0,2.626-1.178,3.961,3.961,0,0,0,.7-1.518,1.888,1.888,0,0,0-.009-1.6c-.34-.5-1.021-.55-1.6-.707S9.075,4.45,9.354,3.927a.99.99,0,0,1,1.091-.358,3.865,3.865,0,0,0,1.213.183c.4-.061.794-.5.6-.864a.818.818,0,0,0-.419-.323,3.833,3.833,0,0,0-3.752.428,5.845,5.845,0,0,1-.846.62,4.647,4.647,0,0,1-1.335.358,8.6,8.6,0,0,0-1.518.436,1.252,1.252,0,0,0-.838.707c-.175.593.5.995,1.082,1.2H4.79c.375-.044.593.4.654.777a22.381,22.381,0,0,1-.27,3.8c-.035,1.274.506,2.766,1.745,3.071.419.1.951.1,1.161.48.288.506-.288,1.038-.55,1.544a2.542,2.542,0,0,0,.323,2.373,9.073,9.073,0,0,1,1.2,2.19c.079.314.131.672.227.986A10.273,10.273,0,0,1,11.5,1.23a10.16,10.16,0,0,1,4.65,1.117.554.554,0,0,0-.018.061.578.578,0,0,0-.009.244.946.946,0,0,0,.166.323c.175.244.349.48.515.724.052.07.122.148.209.14s.131-.1.183-.157a.519.519,0,0,1,.628-.122c.279.148.4.707.55,1.012-.1.1-.2.2-.3.305a1.049,1.049,0,0,0-.253.332,2.091,2.091,0,0,0-.044.742,3.927,3.927,0,0,1-.332,1.073,1.226,1.226,0,0,0,.018,1.091c.209.314.794.349.916-.009a2.857,2.857,0,0,1,.192-1.684,1.109,1.109,0,0,0,.907.14c-.279-.183-.585-.55-.358-.8a.594.594,0,0,1,.532-.1c.1.009.2.026.3.044a10.494,10.494,0,0,1,.75,1.283,2.851,2.851,0,0,1-.436.7,5.5,5.5,0,0,0-1.44,3.272c.018,1.318,1.824,3.7,2.583,3.237A10.273,10.273,0,0,1,11.5,21.769Z" fill="#ccc"/>
</svg>
